<svg width="335" height="118" viewBox="0 0 335 118" fill="none" xmlns="http://www.w3.org/2000/svg">
<path fill-rule="evenodd" clip-rule="evenodd" d="M314.918 36.0769C314.919 36.6307 315.137 37.6885 315.403 38.4282C315.88 39.7543 315.91 39.7666 317.548 39.3232C318.462 39.0763 319.351 38.6089 319.524 38.2848C319.979 37.4309 319.498 37.3378 317.969 37.9831L316.624 38.5505L316.091 36.9813C315.453 35.1029 314.916 34.6894 314.918 36.0769ZM300.986 42.1389C300.514 43.6712 301.518 44.9192 302.887 44.5028C303.528 44.3078 303.986 43.9311 303.906 43.6659C303.825 43.4012 303.4 43.2933 302.962 43.4267C302.353 43.6119 302.059 43.3786 301.718 42.4397C301.293 41.268 301.259 41.2542 300.986 42.1389ZM320.035 68.3704C319.814 68.7851 320.433 72.2712 320.758 72.4448C321.22 72.6914 323.82 71.1739 323.686 70.7353C323.623 70.5268 323.126 70.4479 322.581 70.56C321.767 70.7271 321.518 70.5583 321.176 69.6061C320.759 68.4454 320.274 67.9215 320.035 68.3704ZM333.611 112.248C329.15 111.92 307.369 109.6 301.464 108.825C252.338 102.374 197.048 89.9312 148.113 74.312C138.725 71.3154 139.159 71.6577 140.761 68.52C143.285 63.5752 142.437 58.2262 139.037 57.6434C137.148 57.32 135.853 58.3202 133.453 61.9575C131.886 64.3307 131.449 65.3663 131.432 66.7463L131.409 68.507L129.723 67.919C128.796 67.5957 127.249 67.058 126.286 66.7231C124.729 66.1824 124.621 66.0464 125.312 65.4896C126.798 64.2926 127.795 62.6589 128.054 60.9934C128.238 59.8132 128.544 59.2238 129.087 59.0015C129.633 58.7783 129.863 58.3 129.872 57.3634C129.879 56.6362 129.905 55.6664 129.93 55.2087C130.001 53.8963 128.312 52.3282 126.719 52.2286C124.287 52.0761 121.337 54.7322 118.965 59.2093C117.829 61.3519 116.851 63.0782 116.791 63.046C116.73 63.0137 112.32 61.1546 106.99 58.9152C80.2531 47.6803 56.0382 35.1498 31.7367 19.9741C24.322 15.3443 11.0987 6.46579 5.20776 2.16172C1.43009 -0.59779 0.613901 -1.03084 0.888106 -0.129758C1.17455 0.811545 18.8433 13.1329 28.2333 18.9397C33.8128 22.3901 35.0172 23.3488 34.6461 24.0445C34.4714 24.3721 33.6884 24.6979 32.9056 24.7685C31.2128 24.9214 29.8211 26.4847 29.4909 28.6045C29.0721 31.2908 32.0809 33.6356 34.8608 32.7893C36.9129 32.1652 38.0197 30.285 37.6279 28.0884C37.4704 27.2062 37.5171 26.1554 37.7316 25.7531C38.0754 25.1085 38.5458 25.2949 41.7142 27.3298C46.9267 30.6782 73.5032 44.8891 82.9429 49.3759C91.7765 53.5743 91.8973 53.6936 88.6539 54.9937C87.6552 55.394 86.6378 56.0972 86.3931 56.556C85.0486 59.0768 86.3968 62.121 89.2074 62.9104C91.0559 63.4292 92.0328 63.0482 93.3775 61.2828C94.2096 60.1896 94.3393 59.4925 94.004 57.9148C93.292 54.5665 93.7722 54.3984 98.3242 56.3998C100.55 57.3787 105.615 59.5118 109.581 61.1401C117.707 64.4774 117.418 64.1745 116.043 67.9019C115.47 69.4584 115.418 70.1776 115.882 70.1479C116.258 70.124 117.164 70.4145 117.894 70.7923C119.166 71.4513 119.304 71.3769 121.104 69.0576L122.984 66.6347L127.289 68.162L131.594 69.6886L131.958 71.5089C132.159 72.51 132.316 74.289 132.308 75.4619C132.291 77.795 132.591 78.1906 133.957 77.6323C134.529 77.3987 135.198 77.5683 135.779 78.0945C136.851 79.0656 137.099 78.7503 137.35 76.098C137.451 75.025 137.778 73.6903 138.076 73.1329C138.59 72.1735 138.987 72.2446 145.503 74.4637C149.289 75.7535 152.992 76.9926 153.732 77.2177C155.407 77.7272 155.395 79.202 153.711 79.8074C152.13 80.3765 151.068 82.5917 151.423 84.5815C151.944 87.5054 155.848 88.7719 158.108 86.7503C159.573 85.4391 159.905 83.0221 158.858 81.3032C157.327 78.7902 158.161 78.5057 162.849 79.9421C171.643 82.6364 194.403 88.8108 206.507 91.7854C217.744 94.5477 219.013 94.9555 219.014 95.803C219.015 96.4208 218.641 96.9271 217.933 97.269C217.337 97.5564 216.451 98.5392 215.963 99.4527C214.292 102.587 217.356 106.055 220.992 105.144C223.254 104.577 224.468 100.89 223.063 98.8516C221.422 96.4718 222.582 95.6922 226.515 96.5303C245.992 100.683 255.947 102.639 269.457 104.969C281.282 107.009 285.381 107.903 285.556 108.479C285.732 109.055 285.535 109.4 284.782 109.833C283.192 110.749 282.146 113.182 282.603 114.902C282.944 116.184 283.351 116.569 285.089 117.259C287.543 118.233 288.952 117.749 290.171 115.512C291.054 113.892 290.726 111.865 289.335 110.344C288.966 109.939 288.919 109.326 289.228 108.944C289.609 108.473 291.914 108.554 296.695 109.208C313.134 111.453 335.699 113.687 336.012 113.1C336.295 112.569 335.857 112.413 333.611 112.248ZM287.955 108.997C287.748 109.384 287.384 109.495 287.145 109.243C286.467 108.529 286.841 107.499 287.626 107.918C288.013 108.124 288.161 108.61 287.955 108.997ZM289.495 112.714C290.368 115.141 287.542 117.579 285.266 116.365C282.739 115.018 283.242 111.12 285.985 110.786C287.738 110.573 288.968 111.249 289.495 112.714ZM221.292 96.4215C220.863 97.2256 220.071 96.615 220.342 95.6897C220.494 95.1751 220.769 95.0606 221.076 95.3845C221.347 95.67 221.443 96.1366 221.292 96.4215ZM222.567 100.378C223.674 104.017 217.952 105.821 216.663 102.239C216.114 100.712 217.451 98.1533 218.825 98.1019C220.352 98.045 222.198 99.1678 222.567 100.378ZM140.673 59.8372C141.652 61.3 141.087 65.3444 139.486 68.3467C138.241 70.6804 137.983 70.9235 137.194 70.5027C136.647 70.211 136.461 69.7267 136.71 69.2453C137.04 68.6072 136.852 68.5809 135.697 69.1044L134.28 69.7468L134.653 68.5472L135.025 67.3474L134.161 68.1712C132.982 69.295 132.53 68.9146 132.557 66.8219C132.574 65.4744 132.993 64.4464 134.326 62.484C136.709 58.975 137.21 58.5245 138.56 58.6692C140.093 58.8331 139.949 58.7536 140.673 59.8372ZM128.682 54.6858C128.959 55.2647 128.786 56.472 128.245 57.7358C127.752 58.8863 127.108 60.6228 126.814 61.5945C125.993 64.3007 122.138 66.6485 122.738 64.0767C122.914 63.3243 122.814 63.3147 122.09 64.0168C121.031 65.0444 120.285 64.7376 120.925 63.5378C121.185 63.0489 121.176 62.5298 120.902 62.384C120.625 62.236 120.299 62.566 120.164 63.1324C119.989 63.8652 119.704 64.0285 119.131 63.7229C117.568 62.8895 119.751 58.226 123.077 55.2931C125.911 52.7928 127.684 52.6008 128.682 54.6858ZM127.445 55.596C127.314 55.8404 127.419 56.1536 127.678 56.2915C127.937 56.4295 128.132 56.2767 128.111 55.9516C128.091 55.6265 127.986 55.3136 127.878 55.256C127.77 55.1984 127.575 55.3515 127.445 55.596ZM136.335 60.3379C136.204 60.5824 136.275 60.8768 136.49 60.9917C136.706 61.107 136.768 61.6809 136.629 62.2674C136.34 63.476 137.474 63.9116 138.29 62.9058C138.664 62.4446 138.573 62.2109 137.99 62.1383C137.491 62.0765 137.195 61.6876 137.259 61.1756C137.376 60.2321 136.712 59.6302 136.335 60.3379ZM139.432 62.0238C139.294 62.2825 139.447 62.4776 139.772 62.4569C140.097 62.4362 140.41 62.3313 140.468 62.2233C140.526 62.1152 140.372 61.9205 140.128 61.7901C139.883 61.6597 139.57 61.7651 139.432 62.0238ZM157.118 79.1789C156.699 79.9639 155.815 79.317 155.98 78.3463C156.038 78.0039 156.402 77.8934 156.79 78.0999C157.177 78.3064 157.324 78.7922 157.118 79.1789ZM158.214 82.6595C158.79 84.2607 157.414 86.771 155.96 86.773C153.224 86.7769 151.507 84.3455 152.686 82.1358C153.864 79.9275 157.35 80.2581 158.214 82.6595ZM136.944 73.367C136.632 74.2211 136.347 75.2898 136.311 75.7416C136.267 76.2881 135.788 76.5372 134.879 76.485C133.604 76.4122 133.497 76.2171 133.285 73.5861C133.159 72.0346 133.12 70.6464 133.198 70.5006C133.327 70.2588 134.794 70.6684 136.747 71.4918C137.275 71.7144 137.336 72.2928 136.944 73.367ZM120.847 67.5645C120.286 68.247 119.637 69.1632 119.404 69.6006C119.057 70.25 118.789 70.217 117.934 69.4185C117.1 68.6395 117.01 68.0825 117.493 66.6676C118.225 64.5244 118.376 64.4623 120.328 65.5037C121.813 66.2956 121.831 66.3661 120.847 67.5645ZM92.9218 54.7756C92.8639 55.1175 92.4994 55.228 92.1123 55.0215C91.7255 54.8153 91.5777 54.3293 91.7839 53.9426C92.2026 53.1575 93.0869 53.8045 92.9218 54.7756ZM36.8675 25.0267C36.6398 25.2427 36.2637 25.3184 36.0312 25.1944C35.7987 25.0704 35.6521 24.7158 35.7047 24.4064C35.7572 24.097 36.1333 24.0213 36.541 24.2387C36.9486 24.4561 37.0952 24.8107 36.8675 25.0267ZM36.5714 28.9655C36.5973 30.389 36.464 30.6388 35.2674 31.4103C32.5826 33.1415 29.404 30.3047 30.8955 27.5083C32.3871 24.7118 36.5136 25.7715 36.5714 28.9655ZM93.0293 58.5905C93.3182 61.7954 89.7528 63.1961 87.6904 60.688C85.5391 58.0715 88.3578 54.7319 91.3641 56.3354C92.4931 56.9376 92.9336 57.5345 93.0293 58.5905Z" fill="#92A99CAA"/>
</svg>
