<svg width="406" height="317" viewBox="0 0 406 317" fill="none" xmlns="http://www.w3.org/2000/svg">
<path fill-rule="evenodd" clip-rule="evenodd" d="M29.6013 1.90454C29.1953 2.56154 29.3133 3.54857 29.8633 4.09857C31.1663 5.40157 32.2023 3.72553 31.1483 2.01953C30.5333 1.02553 30.1623 0.997541 29.6013 1.90454ZM91.0894 2.42456C91.0894 3.24956 91.5394 3.92456 92.0894 3.92456C92.6394 3.92456 93.0894 3.24956 93.0894 2.42456C93.0894 1.59956 92.6394 0.924561 92.0894 0.924561C91.5394 0.924561 91.0894 1.59956 91.0894 2.42456ZM37.0894 4.48358C37.0894 5.34058 37.5463 5.75955 38.1053 5.41455C38.6643 5.06855 38.8634 4.36759 38.5464 3.85559C37.6894 2.46859 37.0894 2.72658 37.0894 4.48358ZM46.8394 6.74658C44.1364 9.56558 43.0894 11.5326 43.0894 13.7916C43.0894 15.5146 43.5394 16.9246 44.0894 16.9246C44.6394 16.9246 45.0894 15.5746 45.0894 13.9246C45.0894 11.5916 45.5334 10.9246 47.0894 10.9246C48.3794 10.9246 49.0894 10.2576 49.0894 9.04657C49.0894 8.01457 49.7724 6.60257 50.6084 5.90857C51.8414 4.88557 52.4524 4.93354 53.8584 6.16754C55.0124 7.17954 56.2564 7.41555 57.5894 6.87555C60.8724 5.54555 62.9224 5.81854 63.2714 7.63354C63.5074 8.85554 64.6774 9.37957 67.3754 9.47357C71.5454 9.61857 72.0664 7.65755 68.0114 7.07855C66.6794 6.88755 65.2204 6.08454 64.7704 5.29254C64.2424 4.36654 62.4594 3.89457 59.7704 3.96857C57.4704 4.03257 54.4644 3.80353 53.0894 3.45953C51.0674 2.95453 49.8724 3.58258 46.8394 6.74658ZM77.7683 5.63556C77.4673 6.12156 77.5854 7.10959 78.0304 7.82959C78.6454 8.82359 79.0164 8.85158 79.5774 7.94458C79.9834 7.28758 79.8654 6.30055 79.3154 5.75055C78.7554 5.19055 78.0743 5.14056 77.7683 5.63556ZM85.6324 5.85559C85.3154 6.36759 85.5144 7.06855 86.0734 7.41455C86.6324 7.75955 87.0894 7.34058 87.0894 6.48358C87.0894 4.72658 86.4894 4.46859 85.6324 5.85559ZM91.5354 8.01154C91.1664 8.60954 91.3643 9.59955 91.9763 10.2115C92.7933 11.0285 93.0894 10.7396 93.0894 9.12457C93.0894 6.70957 92.5704 6.33754 91.5354 8.01154ZM82.8134 9.67657C80.2264 12.5356 80.5834 14.8745 83.2074 12.2505C84.3724 11.0855 85.1484 9.60154 84.9314 8.95154C84.6744 8.18054 83.9404 8.43157 82.8134 9.67657ZM96.5894 8.92456C96.2494 9.47456 96.4484 9.92456 97.0304 9.92456C97.6124 9.92456 98.0894 9.47456 98.0894 8.92456C98.0894 8.37456 97.8913 7.92456 97.6483 7.92456C97.4053 7.92456 96.9294 8.37456 96.5894 8.92456ZM101.089 8.92456C101.089 9.47456 101.539 9.92456 102.089 9.92456C102.639 9.92456 103.089 9.47456 103.089 8.92456C103.089 8.37456 102.639 7.92456 102.089 7.92456C101.539 7.92456 101.089 8.37456 101.089 8.92456ZM28.0894 10.9246C28.0894 11.4746 28.5663 11.9246 29.1483 11.9246C29.7303 11.9246 29.9294 11.4746 29.5894 10.9246C29.2494 10.3746 28.7734 9.92456 28.5304 9.92456C28.2874 9.92456 28.0894 10.3746 28.0894 10.9246ZM35.0894 10.9246C35.0894 11.4746 35.5394 11.9246 36.0894 11.9246C36.6394 11.9246 37.0894 11.4746 37.0894 10.9246C37.0894 10.3746 36.6394 9.92456 36.0894 9.92456C35.5394 9.92456 35.0894 10.3746 35.0894 10.9246ZM33.0894 14.9246C33.0894 15.4746 33.7644 15.9246 34.5894 15.9246C35.4144 15.9246 36.0894 15.4746 36.0894 14.9246C36.0894 14.3746 35.4144 13.9246 34.5894 13.9246C33.7644 13.9246 33.0894 14.3746 33.0894 14.9246ZM90.0894 15.4246C90.0894 16.2496 90.5394 16.9246 91.0894 16.9246C91.6394 16.9246 92.0894 16.2496 92.0894 15.4246C92.0894 14.5996 91.6394 13.9246 91.0894 13.9246C90.5394 13.9246 90.0894 14.5996 90.0894 15.4246ZM99.0894 14.9246C99.0894 15.4746 99.5394 15.9246 100.089 15.9246C100.639 15.9246 101.089 15.4746 101.089 14.9246C101.089 14.3746 100.639 13.9246 100.089 13.9246C99.5394 13.9246 99.0894 14.3746 99.0894 14.9246ZM28.6424 16.8395C28.3204 17.3605 28.4834 18.0496 29.0044 18.3716C29.5254 18.6936 30.2143 18.5306 30.5363 18.0096C30.8583 17.4886 30.6953 16.7995 30.1743 16.4775C29.6533 16.1555 28.9644 16.3185 28.6424 16.8395ZM48.4184 17.3826C45.4134 18.6896 43.0894 21.5146 43.0894 23.8586C43.0894 25.7116 44.5764 25.0136 45.6024 22.6786C46.1454 21.4436 47.9064 19.8066 49.5174 19.0396C52.2054 17.7596 52.5864 17.8205 54.1774 19.7845C56.2004 22.2825 57.0894 22.4956 57.0894 20.4816C57.0894 19.1856 53.4354 15.8656 52.1164 15.9636C51.8264 15.9856 50.1624 16.6236 48.4184 17.3826ZM82.4824 19.5065C82.8164 20.3765 83.0894 21.9515 83.0894 23.0065C83.0894 24.0615 83.4914 24.9246 83.9824 24.9246C85.4964 24.9246 86.1374 21.8825 85.0504 19.8525C83.8154 17.5435 81.6154 17.2475 82.4824 19.5065ZM12.5844 23.1746C7.74535 27.8146 6.56836 31.4786 9.33936 33.2776C12.2984 35.1996 14.5894 32.8856 14.5894 27.9736C14.5894 21.5206 18.8884 19.2176 25.0174 22.3876C29.2804 24.5916 29.6164 26.7736 26.2424 30.3426C22.1804 34.6406 20.5534 37.9246 22.4864 37.9246C23.2944 37.9246 24.2314 37.0526 24.5694 35.9866C24.9084 34.9196 26.7544 32.6696 28.6724 30.9866C32.9054 27.2696 38.9264 26.7616 42.0244 29.8596C46.1664 34.0016 46.4803 43.7936 42.5193 45.3126C40.6883 46.0156 40.6554 47.9246 42.4744 47.9246C43.9844 47.9246 46.3953 44.7076 47.4973 41.2236C48.4893 38.0856 46.3664 31.1106 43.5654 28.3096C41.6864 26.4306 40.1163 25.9246 36.1703 25.9246C32.1923 25.9246 30.9404 25.5146 30.0954 23.9346C28.6874 21.3046 23.9414 18.9246 20.1024 18.9246C17.8344 18.9246 15.8424 20.0506 12.5844 23.1746ZM70.0894 22.7446C70.0894 23.5296 70.9684 23.9346 72.2614 23.7446C75.3334 23.2916 75.5974 21.4246 72.5894 21.4246C71.1854 21.4246 70.0894 22.0036 70.0894 22.7446ZM95.0894 21.9246C95.0894 22.4746 95.9894 22.9246 97.0894 22.9246C98.2004 22.9246 99.0894 23.5916 99.0894 24.4246C99.0894 25.2496 99.5394 25.9246 100.089 25.9246C100.639 25.9246 101.089 24.7996 101.089 23.4246C101.089 21.3136 100.622 20.9246 98.0894 20.9246C96.4394 20.9246 95.0894 21.3746 95.0894 21.9246ZM59.0894 23.8156C59.0894 24.3866 60.0293 25.3575 61.1783 25.9725C62.9683 26.9295 63.2174 26.8286 62.9174 25.2686C62.5474 23.3476 59.0894 22.0356 59.0894 23.8156ZM114.089 25.9246C114.089 26.4746 114.539 26.9246 115.089 26.9246C115.639 26.9246 116.089 26.4746 116.089 25.9246C116.089 25.3746 115.639 24.9246 115.089 24.9246C114.539 24.9246 114.089 25.3746 114.089 25.9246ZM71.6494 28.5425C71.0424 30.9615 71.5264 32.8205 72.5084 31.8395C73.5614 30.7855 74.2174 25.9246 73.3064 25.9246C72.7564 25.9246 72.0104 27.1025 71.6494 28.5425ZM12.7534 30.3575C12.4224 31.2195 11.6884 31.9246 11.1204 31.9246C9.97036 31.9246 9.70737 28.6396 10.7724 27.5746C11.8704 26.4766 13.4114 28.6415 12.7534 30.3575ZM91.0434 30.0106C90.4294 31.1576 90.2504 32.3946 90.6454 32.7606C91.0404 33.1256 91.5644 32.8626 91.8094 32.1746C92.6564 29.8046 94.0894 30.9326 94.0894 33.9686C94.0894 35.8236 94.5774 36.9485 95.3394 36.8495C98.8474 36.3945 99.3504 36.9275 98.7724 40.4905C98.3624 43.0155 98.5434 43.9416 99.3914 43.6636C100.05 43.4466 100.729 41.6196 100.899 39.6036C101.162 36.4906 100.822 35.7605 98.6494 34.7695C97.2414 34.1285 96.0894 32.8656 96.0894 31.9636C96.0894 30.2626 94.2573 27.9246 92.9243 27.9246C92.5043 27.9246 91.6574 28.8636 91.0434 30.0106ZM81.0894 29.9246C81.0894 30.4746 82.4394 30.9246 84.0894 30.9246C85.7394 30.9246 87.0894 30.4746 87.0894 29.9246C87.0894 29.3746 85.7394 28.9246 84.0894 28.9246C82.4394 28.9246 81.0894 29.3746 81.0894 29.9246ZM58.0894 30.8026C58.0894 32.2846 60.9363 34.1366 62.1053 33.4146C62.8383 32.9616 62.6004 32.2715 61.3994 31.3605C59.2934 29.7645 58.0894 29.5606 58.0894 30.8026ZM30.2894 33.1246C27.2144 36.1996 31.1683 40.2595 35.5873 38.5635C38.6813 37.3765 36.6294 31.9246 33.0894 31.9246C32.2094 31.9246 30.9494 32.4646 30.2894 33.1246ZM109.089 32.9246C109.089 33.4746 109.539 33.9246 110.089 33.9246C110.639 33.9246 111.089 33.4746 111.089 32.9246C111.089 32.3746 110.639 31.9246 110.089 31.9246C109.539 31.9246 109.089 32.3746 109.089 32.9246ZM115.089 32.9246C115.089 33.4746 115.512 33.9246 116.03 33.9246C116.548 33.9246 117.249 33.4746 117.589 32.9246C117.929 32.3746 117.505 31.9246 116.648 31.9246C115.791 31.9246 115.089 32.3746 115.089 32.9246ZM34.8604 35.7375C35.0784 36.3905 34.5434 36.9246 33.6724 36.9246C32.8014 36.9246 32.0894 36.2126 32.0894 35.3416C32.0894 33.5756 34.2424 33.8825 34.8604 35.7375ZM53.0894 37.3896C53.0894 39.9376 55.6474 41.9925 57.8394 41.2065C59.9814 40.4375 59.2884 38.0596 57.0894 38.6346C55.5544 39.0366 55.0894 38.6656 55.0894 37.0416C55.0894 35.8766 54.6394 34.9246 54.0894 34.9246C53.5394 34.9246 53.0894 36.0336 53.0894 37.3896ZM74.1183 35.8856C73.3093 36.3976 72.9523 37.1205 73.3253 37.4935C74.2403 38.4085 77.0894 37.2446 77.0894 35.9556C77.0894 34.6856 76.0543 34.6616 74.1183 35.8856ZM8.25635 37.5206C7.04635 38.3676 6.31837 39.4855 6.63837 40.0035C6.97737 40.5515 8.06637 40.3536 9.24237 39.5306C10.6594 38.5376 12.1354 38.3636 14.1764 38.9496C15.8044 39.4166 17.0894 39.4006 17.0894 38.9136C17.0894 36.6266 10.9213 35.6536 8.25635 37.5206ZM111.089 36.9246C111.089 37.4746 111.539 37.9246 112.089 37.9246C112.639 37.9246 113.089 37.4746 113.089 36.9246C113.089 36.3746 112.639 35.9246 112.089 35.9246C111.539 35.9246 111.089 36.3746 111.089 36.9246ZM103.656 37.8156C103.313 38.3706 103.933 39.3055 105.032 39.8945C106.576 40.7205 106.9 41.6216 106.454 43.8516C105.983 46.2036 106.36 47.0555 108.483 48.4465C109.916 49.3865 111.089 50.5526 111.089 51.0396C111.089 52.7086 106.359 51.9245 103.671 49.8105C99.9874 46.9125 98.8914 48.4936 102.457 51.5626C106.204 54.7876 112.419 54.6145 112.896 51.2715C113.089 49.9165 112.347 48.5175 110.896 47.4985C109.333 46.4025 108.589 44.8826 108.589 42.7866C108.589 39.5296 104.897 35.8086 103.656 37.8156ZM85.3394 39.5865C83.2554 40.4275 83.9423 42.1966 86.1303 41.6246C87.7843 41.1916 88.0564 41.4546 87.5634 43.0076C86.7554 45.5526 88.7263 45.4726 90.1003 42.9036C91.8543 39.6276 89.4274 37.9375 85.3394 39.5865ZM22.7144 42.4426C20.9854 44.1716 20.4543 49.9246 22.0233 49.9246C22.5363 49.9246 23.0993 48.6876 23.2733 47.1746C23.7613 42.9266 27.3754 42.8985 28.6214 47.1335C29.4904 50.0865 30.0414 50.4756 33.9944 50.9246C37.2094 51.2896 38.5994 51.9646 39.1374 53.4246C39.8164 55.2666 39.9314 55.2856 40.5944 53.6616C41.6334 51.1146 39.4773 49.0826 35.3643 48.7306C33.3993 48.5626 31.4794 47.7496 31.0984 46.9246C28.9904 42.3646 28.2004 41.3966 26.3624 41.1216C25.2494 40.9546 23.6074 41.5496 22.7144 42.4426ZM61.9153 42.6365C58.1713 44.9595 55.3024 51.9246 58.0894 51.9246C58.6394 51.9246 59.0894 51.0855 59.0894 50.0605C59.0894 47.4665 63.8934 42.9246 66.6364 42.9246C68.7494 42.9246 74.0894 47.9366 74.0894 49.9186C74.0894 50.3806 76.1214 51.5356 78.6064 52.4846C81.8134 53.7086 83.2994 54.9136 83.7334 56.6406C84.6024 60.1066 82.8133 63.3246 78.9843 65.1786C75.9933 66.6266 75.3404 66.6335 72.1344 65.2435C66.9404 62.9925 65.0894 62.5726 65.0894 63.6476C65.0894 64.6856 68.8814 66.6575 73.4924 68.0165C76.9084 69.0235 82.3184 66.8635 84.6244 63.5715C86.5054 60.8865 86.5034 55.8545 84.6214 53.3655C83.8134 52.2985 83.1384 50.1876 83.1214 48.6746C83.1034 47.1616 82.6394 45.9246 82.0894 45.9246C81.5394 45.9246 81.0894 47.0496 81.0894 48.4246C81.0894 51.8986 78.8083 51.5866 75.6093 47.6746C74.1463 45.8866 72.3114 43.6366 71.5294 42.6746C69.7504 40.4826 65.4153 40.4655 61.9153 42.6365ZM4.33136 42.7745C2.29436 44.0345 1.71235 49.3665 3.45535 50.8135C5.90035 52.8425 9.08936 51.2566 9.08936 48.0126C9.08936 44.8666 6.16136 41.6435 4.33136 42.7745ZM6.72937 48.4205C5.84437 50.7265 4.16435 49.3535 4.81735 46.8575C5.17635 45.4825 5.69135 45.1266 6.35635 45.7916C6.90535 46.3406 7.07337 47.5235 6.72937 48.4205ZM93.5484 48.9916C93.1854 49.5776 93.1294 50.2976 93.4224 50.5916C94.1394 51.3076 96.0894 50.0455 96.0894 48.8655C96.0894 47.5875 94.3634 47.6726 93.5484 48.9916ZM68.8184 52.5286C66.5354 54.8116 70.0004 57.6636 73.4484 56.3406C75.9014 55.3996 75.4274 53.9246 72.6724 53.9246C71.3434 53.9246 70.0963 53.4465 69.9023 52.8625C69.7073 52.2775 69.2194 52.1276 68.8184 52.5286ZM4.26935 55.0726C4.68635 57.8746 7.29337 59.4745 9.70337 58.4075C11.4294 57.6435 11.3884 57.5376 9.22336 57.1636C7.92236 56.9396 6.63236 55.8935 6.35736 54.8395C5.66936 52.2105 3.87335 52.4106 4.26935 55.0726ZM15.5443 55.3796C13.1453 57.7786 12.3743 61.8986 13.6863 65.3156C14.6043 67.7106 20.3304 68.3685 23.9514 66.4955C25.6594 65.6125 28.3143 64.9866 29.8513 65.1036C32.7893 65.3276 35.0894 64.3866 35.0894 62.9606C35.0894 61.7326 27.2073 62.8075 22.8933 64.6235C17.2173 67.0135 14.1363 64.8595 15.4933 59.4515C16.3153 56.1745 19.4374 54.5056 22.0894 55.9246C24.2924 57.1036 24.7773 56.0126 22.8893 54.1246C21.0003 52.2356 18.2113 52.7116 15.5443 55.3796ZM47.7563 54.5916C46.2533 56.0936 47.2654 56.8396 50.0524 56.2816C55.3914 55.2146 58.0263 56.5935 60.4193 61.7095C61.6333 64.3025 63.8554 68.2166 65.3574 70.4066C66.8604 72.5966 68.0894 75.4315 68.0894 76.7065C68.0894 80.5945 65.1504 85.0005 61.5554 86.5035C56.0414 88.8065 53.2154 88.3136 49.6534 84.4246C47.8044 82.4066 45.4923 80.9246 44.1913 80.9246C40.8063 80.9246 36.0894 75.7115 36.0894 71.9695C36.0894 65.6915 41.2204 57.9935 44.5524 59.2715C45.5054 59.6375 46.0894 59.3036 46.0894 58.3936C46.0894 56.2236 41.8333 56.5826 39.2733 58.9676C35.8013 62.2016 33.9194 67.7976 34.2724 73.8326C34.6234 79.8236 32.7673 82.0646 31.7343 76.8976C31.3753 75.1046 30.6723 74.0646 30.0703 74.4366C29.4573 74.8156 29.2954 76.5045 29.6774 78.5425C30.1694 81.1645 29.8733 82.5056 28.4583 84.0706C26.9793 85.7056 26.5664 87.8366 26.4784 94.2806C26.4054 99.6306 25.7694 103.787 24.6234 106.396C23.4034 109.17 23.0574 111.675 23.4734 114.71C23.9934 118.504 23.6273 119.743 20.5793 124.509C16.3333 131.145 16.0753 133.706 20.1303 128.963L23.0894 125.501V130.636C23.0894 134.653 23.6334 136.418 25.5864 138.739C32.2644 146.676 41.3834 141.46 44.1534 128.119C45.2044 123.054 44.7184 116.962 43.3714 118.31C43.0294 118.652 42.6734 121.067 42.5804 123.678C42.3504 130.102 38.9884 137.413 35.4274 139.234C30.0204 141.998 25.0894 137.69 25.0894 130.202C25.0894 125.804 25.5413 125.292 28.0323 126.869C29.2093 127.613 29.2553 128.265 28.2823 130.4C26.8233 133.603 26.8104 133.925 28.1414 133.925C28.7204 133.925 29.6694 132.561 30.2504 130.893C30.9464 128.897 32.4664 127.376 34.6984 126.444C37.3414 125.34 38.0894 124.443 38.0894 122.382C38.0894 120.61 37.4524 119.571 36.1584 119.233C34.0184 118.673 34.4363 115.925 36.6613 115.925C38.4983 115.925 39.6984 113.36 40.5244 107.663C41.2024 102.989 41.1614 102.889 38.2804 102.313C36.3764 101.932 35.3873 101.146 35.4673 100.076C35.5583 98.8396 34.7084 98.4125 32.0894 98.3785C28.9954 98.3375 28.5514 98.0006 28.2574 95.4706C27.8154 91.6556 28.9424 85.9246 30.1344 85.9246C30.6594 85.9246 31.0894 88.1746 31.0894 90.9246C31.0894 93.7426 31.5464 95.9246 32.1374 95.9246C32.7874 95.9246 33.0724 93.5536 32.8874 89.6746C32.6294 84.2576 32.8794 83.1896 34.7674 81.6586C36.8494 79.9706 37.1024 79.9706 40.4924 81.6586C42.4434 82.6296 44.0514 83.7715 44.0644 84.1965C44.0784 84.6215 42.7673 87.8835 41.1523 91.4465C39.5363 95.0095 38.6114 97.9246 39.0954 97.9246C40.5204 97.9246 42.9434 93.8806 44.7144 88.5486L46.3643 83.5815L48.2854 86.2186C49.4404 87.8046 51.5914 89.1156 53.6804 89.5076C57.4694 90.2186 59.9034 93.1786 66.1534 104.675C69.3564 110.567 72.3683 113.033 71.6483 109.175C71.4683 108.213 70.9973 103.713 70.6013 99.1746C70.2003 94.5856 69.4194 90.9246 68.8404 90.9246C68.1604 90.9246 68.0073 93.4036 68.3983 98.0756L68.9984 105.228L64.4434 97.4465C59.5964 89.1655 59.7354 87.2215 65.0894 88.4515C71.4144 89.9055 78.1423 90.1255 79.5873 88.9255C81.8623 87.0375 81.3893 84.1456 78.5623 82.6646L76.0354 81.3406L79.0294 79.1276C80.8024 77.8156 81.7993 76.3336 81.4753 75.4896C80.7393 73.5696 76.2574 72.1096 72.5844 72.5936C69.9384 72.9416 69.2284 72.4315 66.4864 68.2065C64.7794 65.5765 62.8044 61.9446 62.0984 60.1346C61.3914 58.3256 59.8754 56.1876 58.7294 55.3846C56.6244 53.9106 48.9883 53.3586 47.7563 54.5916ZM103.839 57.0276C105.626 58.8816 105.382 62.3586 103.339 64.1426C102.377 64.9836 99.8813 65.9776 97.7943 66.3516C94.9923 66.8536 93.7484 67.6916 93.0414 69.5516C91.7894 72.8426 89.0614 72.3185 87.1174 68.4125C85.6314 65.4245 85.6304 65.4245 85.2624 67.8865C85.0174 69.5285 85.6294 70.9435 87.1024 72.1365C90.2024 74.6465 92.9294 74.3705 94.2784 71.4095C95.1084 69.5885 96.4644 68.7286 99.1944 68.2916C104.627 67.4226 107.271 64.6076 106.894 60.0926C106.666 57.3596 106.086 56.3516 104.589 56.0856C102.971 55.7986 102.828 55.9786 103.839 57.0276ZM91.0894 58.9556C91.0894 61.6176 93.8314 62.6105 95.7854 60.6575C97.7474 58.6945 96.6784 56.9246 93.5304 56.9246C91.7434 56.9246 91.0894 57.4686 91.0894 58.9556ZM118.589 57.9246C118.249 58.4746 118.448 58.9246 119.03 58.9246C119.612 58.9246 120.089 58.4746 120.089 57.9246C120.089 57.3746 119.891 56.9246 119.648 56.9246C119.405 56.9246 118.929 57.3746 118.589 57.9246ZM113.089 59.9246C113.089 60.4746 113.539 60.9246 114.089 60.9246C114.639 60.9246 115.089 60.4746 115.089 59.9246C115.089 59.3746 114.639 58.9246 114.089 58.9246C113.539 58.9246 113.089 59.3746 113.089 59.9246ZM6.08936 62.9246C6.08936 63.4746 6.53936 63.9246 7.08936 63.9246C7.63936 63.9246 8.08936 63.4746 8.08936 62.9246C8.08936 62.3746 7.63936 61.9246 7.08936 61.9246C6.53936 61.9246 6.08936 62.3746 6.08936 62.9246ZM111.599 63.9406C111.945 64.4996 112.646 64.6985 113.158 64.3815C114.545 63.5245 114.287 62.9246 112.53 62.9246C111.673 62.9246 111.254 63.3816 111.599 63.9406ZM0.0893555 66.9246C0.0893555 67.6576 0.389348 67.9576 0.756348 67.5916C1.12235 67.2246 1.12235 66.6246 0.756348 66.2576C0.389348 65.8916 0.0893555 66.1916 0.0893555 66.9246ZM6.08936 66.8655C6.08936 67.3835 6.53936 68.0846 7.08936 68.4246C7.63936 68.7646 8.08936 68.3406 8.08936 67.4836C8.08936 66.6266 7.63936 65.9246 7.08936 65.9246C6.53936 65.9246 6.08936 66.3475 6.08936 66.8655ZM26.5594 69.6335C26.2354 71.1685 25.6134 73.0996 25.1774 73.9246C23.3864 77.3146 15.7024 75.5706 16.2874 71.9066C16.4534 70.8666 16.1394 69.9805 15.5894 69.9385C15.0394 69.8965 14.4513 70.9576 14.2823 72.2966C13.6323 77.4506 23.6104 80.2206 26.4474 75.6746C28.3984 72.5486 29.2893 68.1666 28.1223 67.4446C27.5863 67.1136 26.8834 68.0985 26.5594 69.6335ZM51.0053 69.3356C52.2683 70.6796 53.0764 72.5596 52.8324 73.5856C52.4904 75.0216 52.0483 74.6566 50.8163 71.9246C49.5273 69.0656 49.1134 68.7466 48.5544 70.1826C47.6394 72.5316 50.6084 76.9246 53.1124 76.9246C54.6874 76.9246 55.0894 76.2446 55.0894 73.5796C55.0894 70.1806 52.6414 66.9246 50.0864 66.9246C49.2134 66.9246 49.5353 67.7706 51.0053 69.3356ZM100.089 70.9246C100.089 71.4746 100.539 71.9246 101.089 71.9246C101.639 71.9246 102.089 71.4746 102.089 70.9246C102.089 70.3746 101.639 69.9246 101.089 69.9246C100.539 69.9246 100.089 70.3746 100.089 70.9246ZM103.089 72.7845C103.089 73.4115 104.327 73.9316 105.839 73.9406C115.039 73.9926 125.089 78.8256 125.089 83.1976C125.089 86.3566 119.553 90.6596 113.94 91.8636C108.318 93.0686 107.518 92.7396 103.975 87.7646L101.954 84.9255L107.021 81.7756C109.809 80.0436 112.089 78.2526 112.089 77.7966C112.089 76.6596 107.477 78.7436 102.241 82.2466C98.4204 84.8036 97.3094 85.0786 93.0864 84.5186C86.1564 83.5996 82.4694 85.4896 83.0164 89.6816C83.1064 90.3736 82.0344 92.4406 80.6344 94.2756C77.8574 97.9176 77.4714 100.6 79.3914 102.925C81.1594 105.067 84.7283 106.925 87.0753 106.925C88.3223 106.925 89.0943 107.592 89.1013 108.675C89.1083 109.637 90.6833 114.02 92.6013 118.415C94.5193 122.809 96.0894 126.541 96.0894 126.707C96.0894 126.873 92.6044 126.878 88.3444 126.717L80.5984 126.425L78.8364 122.675C77.8664 120.613 76.8694 118.925 76.6204 118.925C76.3714 118.925 75.3154 119.839 74.2754 120.956C72.7004 122.647 71.9284 122.814 69.6714 121.956C63.9514 119.781 61.9004 121.64 64.1164 126.99C65.5774 130.516 69.3984 132.747 75.9354 133.889C78.4954 134.336 83.9644 135.944 88.0894 137.462C93.4124 139.421 97.6214 140.252 102.589 140.324L109.589 140.425L109.865 134.925C110.017 131.9 109.448 126.95 108.602 123.925C107.755 120.9 106.076 114.262 104.87 109.175C103.664 104.088 102.269 99.9246 101.769 99.9246C100.486 99.9246 101.788 107.585 104.711 117.232C106.076 121.738 107.465 128.531 107.799 132.328L108.405 139.231L102.444 138.691C99.1654 138.394 92.4573 136.789 87.5363 135.125C82.6153 133.461 76.7034 131.8 74.3974 131.434C71.8984 131.038 69.1734 129.736 67.6474 128.211C64.6534 125.217 64.1744 122.357 66.8394 123.388C70.5034 124.805 73.8723 125.085 74.5273 124.026C75.4733 122.494 77.0894 122.648 77.0894 124.27C77.0894 125.01 78.0044 126.443 79.1234 127.456C80.8414 129.01 82.6574 129.265 90.8064 129.095C96.1124 128.984 100.635 128.713 100.855 128.492C101.075 128.272 100.39 127.226 99.3324 126.168C96.9214 123.757 91.0894 109.905 91.0894 106.589C91.0894 104.694 92.6743 102.939 97.8553 99.0975C103.921 94.6015 104.981 94.1556 108.088 94.7906C111.06 95.3986 111.796 96.1495 113.247 100.059C116.185 107.973 117.237 119.135 115.973 128.991C115.351 133.84 115.15 139.031 115.525 140.528C115.913 142.074 121.472 148.689 128.399 155.848C141.27 169.151 146.3 176.766 158.087 200.792C160.687 206.09 167.6 218.525 173.449 228.425C179.299 238.325 184.086 247.247 184.087 248.252C184.09 251.524 178.661 255.925 174.62 255.925C170.814 255.925 166.089 259.44 166.089 262.273C166.089 263.976 163.973 264.925 160.177 264.925C157.482 264.925 154.127 266.459 143.089 272.738C137.165 276.108 131.501 277.523 120.792 278.308C112.787 278.894 113.672 280.128 109.154 262.097C101.476 231.452 98.6904 212.143 97.0974 178.516C96.0264 155.894 94.8474 146.25 92.6374 142.032C90.6654 138.267 90.0324 141.087 91.7484 145.992C92.6014 148.43 93.5384 154.106 93.8304 158.604L94.3624 166.783L90.5264 167.503C85.9614 168.359 50.9023 167.186 50.0193 166.147C49.6813 165.75 50.5713 159.086 51.9973 151.337C54.0323 140.275 55.1794 136.398 57.3394 133.284C60.3254 128.978 60.6844 126.906 58.9944 123.747C58.0924 122.063 57.2504 121.803 54.2444 122.28C50.6604 122.849 50.5394 122.759 48.0004 117.643C46.5774 114.773 44.6624 112.279 43.7454 112.101C42.4534 111.849 42.7773 112.899 45.1953 116.788C47.6163 120.684 48.3604 123.094 48.5344 127.612C48.6584 130.809 49.5084 134.866 50.4254 136.626C52.0114 139.675 51.9644 140.481 49.4424 153.532C47.1294 165.499 46.9814 167.374 48.2714 168.33C49.5074 169.246 49.5974 170.893 48.8264 178.425C48.3154 183.42 48.2454 194.099 48.6684 202.425C49.0884 210.675 49.5564 231.825 49.7074 249.425C49.8584 267.025 50.3944 284.8 50.8974 288.925C51.6854 295.393 51.5594 296.928 49.9784 300.08C48.9704 302.091 46.8954 304.723 45.3674 305.93L42.5894 308.123L42.2823 304.024C42.1123 301.77 41.6023 299.925 41.1483 299.925C40.2943 299.925 39.0684 312.845 39.7964 314.175C40.0224 314.588 42.8954 314.925 46.1804 314.925C52.3534 314.925 59.0894 312.846 59.0894 310.94C59.0894 310.343 61.1544 308.969 63.6794 307.887L68.2683 305.919L67.4294 297.172C66.2834 285.239 66.6244 271.275 68.4964 253.425C69.3614 245.175 70.4954 231.45 71.0164 222.925C71.8794 208.808 74.0514 194.242 74.7454 197.925C75.9674 204.416 76.7904 236.326 75.9964 246.425C75.4774 253.025 75.0804 266.075 75.1154 275.425C75.1944 296.849 75.2314 295.215 74.4874 303.173C73.7634 310.919 75.0034 313.818 79.9094 315.85C82.3864 316.876 83.4014 316.815 85.9774 315.483C91.1614 312.802 92.4344 309.917 91.1664 303.726C89.4584 295.387 89.3224 297.547 93.5154 266.425C94.3304 260.375 95.7303 248 96.6273 238.925C97.5233 229.85 98.3803 222.301 98.5313 222.15C98.6833 221.998 99.3654 225.373 100.048 229.65C102.603 245.656 110.388 277.305 112.291 279.425C112.785 279.975 114.629 280.435 116.389 280.447L119.589 280.468L119.309 285.947C118.76 296.709 114.002 306.476 108.123 308.911C102.97 311.045 103.029 314.925 108.214 314.925C109.867 314.925 112.142 315.418 113.269 316.021C114.479 316.669 117.122 316.847 119.724 316.457C123.334 315.916 125.574 314.506 132.11 308.662C140.87 300.829 141.45 299.345 138.022 293.537C136.886 291.61 135.703 287.581 135.393 284.583L134.831 279.133L139.316 277.149C141.782 276.058 146.874 273.311 150.632 271.045C154.389 268.779 158.699 266.925 160.211 266.925C164.537 266.925 168.089 265.188 168.089 263.072C168.089 260.361 170.404 258.79 175.849 257.807C180.912 256.892 186.089 252.278 186.089 248.68C186.089 246.261 182.485 239.272 173.095 223.477C168.827 216.298 162.575 204.911 159.202 198.172C147.565 174.918 141.213 165.383 130.058 154.425C117.213 141.806 116.621 140.525 118.11 128.567C119.041 121.093 118.975 117.74 117.75 110.19C116.925 105.111 115.537 99.5256 114.666 97.7776C113.794 96.0296 113.195 94.5296 113.335 94.4426C113.475 94.3556 115.468 93.7455 117.765 93.0865C122.725 91.6635 127.089 86.9346 127.089 82.9846C127.089 77.3796 120.228 73.4136 108.425 72.1956C104.776 71.8186 103.089 72.0045 103.089 72.7845ZM94.0894 73.9246C94.0894 74.4746 94.5394 74.9246 95.0894 74.9246C95.6394 74.9246 96.0894 74.4746 96.0894 73.9246C96.0894 73.3746 95.6394 72.9246 95.0894 72.9246C94.5394 72.9246 94.0894 73.3746 94.0894 73.9246ZM78.6114 75.9595C79.1474 76.8275 73.0493 80.9246 71.2213 80.9246C69.0473 80.9246 69.9694 75.9046 72.3024 75.0416C74.6434 74.1756 77.7914 74.6335 78.6114 75.9595ZM86.0894 77.8655C86.0894 78.3835 86.5394 79.0846 87.0894 79.4246C87.6394 79.7646 88.0894 79.3406 88.0894 78.4836C88.0894 77.6266 87.6394 76.9246 87.0894 76.9246C86.5394 76.9246 86.0894 77.3475 86.0894 77.8655ZM90.0894 77.9246C90.0894 78.4746 90.7913 78.9246 91.6483 78.9246C92.5053 78.9246 92.9294 78.4746 92.5894 77.9246C92.2494 77.3746 91.5484 76.9246 91.0304 76.9246C90.5124 76.9246 90.0894 77.3746 90.0894 77.9246ZM97.5894 77.9246C97.9294 78.4746 98.4053 78.9246 98.6483 78.9246C98.8913 78.9246 99.0894 78.4746 99.0894 77.9246C99.0894 77.3746 98.6124 76.9246 98.0304 76.9246C97.4484 76.9246 97.2494 77.3746 97.5894 77.9246ZM35.7014 88.5656C35.0904 93.7656 35.3913 95.9556 36.5573 94.7896C37.5953 93.7516 38.3323 82.9246 37.3643 82.9246C36.8143 82.9246 36.0664 85.4636 35.7014 88.5656ZM77.9673 84.8286C78.7423 85.3196 79.0143 86.2376 78.5873 86.9276C77.7963 88.2066 68.7043 87.8736 67.3463 86.5146C65.3083 84.4776 74.9863 82.9396 77.9673 84.8286ZM97.5994 86.9246C99.9514 86.9246 101.304 87.6035 102.457 89.3625C104.044 91.7855 104.002 91.8406 95.8614 97.9756C86.9774 104.67 85.0894 105.732 85.0894 104.032C85.0894 103.423 84.2414 102.925 83.2064 102.925C79.8764 102.925 79.8154 98.8646 83.0764 94.3076C84.6964 92.0436 85.7003 89.8696 85.3073 89.4756C83.9343 88.1026 88.5164 85.7855 91.4644 86.3625C93.0454 86.6715 95.8064 86.9246 97.5994 86.9246ZM46.2974 94.2126C43.9834 96.5706 42.0894 99.1416 42.0894 99.9246C42.0894 100.709 44.3394 99.1336 47.0894 96.4246C49.8394 93.7156 52.0894 91.1456 52.0894 90.7126C52.0894 89.0356 50.3424 90.0906 46.2974 94.2126ZM287.089 100.925C287.089 102.792 287.356 103.058 288.289 102.125C289.222 101.192 289.222 100.658 288.289 99.7245C287.356 98.7915 287.089 99.0576 287.089 100.925ZM32.6594 100.812C31.9704 101.926 33.9644 103.59 36.5894 104.092C38.6014 104.477 38.7843 105.929 37.5443 111.654C37.1073 113.674 36.6434 113.826 32.5954 113.271C29.0164 112.78 28.0044 112.982 27.5044 114.286C26.6304 116.564 25.0894 115.307 25.0894 112.316C25.0894 108.307 29.9693 99.9246 32.3033 99.9246C32.8003 99.9246 32.9604 100.324 32.6594 100.812ZM282.589 100.925C282.929 101.475 283.63 101.925 284.148 101.925C284.666 101.925 285.089 101.475 285.089 100.925C285.089 100.375 284.387 99.9246 283.53 99.9246C282.673 99.9246 282.249 100.375 282.589 100.925ZM273.289 103.125C271.425 104.989 271.871 109.064 274.213 111.558C276.202 113.675 276.231 113.926 274.659 115.498C273.713 116.444 273.113 118.322 273.285 119.801C273.663 123.059 276.887 123.758 280.53 121.372C282.989 119.76 283.089 119.775 283.089 121.751C283.089 126.673 289.365 125.648 291.082 120.445C291.714 118.531 291.946 116.502 291.597 115.938C291.248 115.373 291.891 113.607 293.026 112.014C295.741 108.2 295.633 106.1 292.682 105.359C290.104 104.712 286.089 106.332 286.089 108.019C286.089 108.582 285.65 108.772 285.114 108.441C284.578 108.109 283.634 109.845 283.017 112.298C281.814 117.074 278.928 120.925 276.55 120.925C274.29 120.925 274.825 117.347 277.339 115.65L279.589 114.13L276.747 111.126C273.666 107.871 273.519 104.658 276.425 104.099C277.422 103.907 279.107 104.536 280.17 105.498C282.726 107.811 283.919 106.499 281.595 103.931C279.579 101.704 275.141 101.273 273.289 103.125ZM292.393 107.562C292.743 107.913 292.113 109.487 290.992 111.061C289.798 112.737 289.2 114.698 289.547 115.792C290.31 118.195 288.524 122.925 286.854 122.925C282.372 122.925 283.45 110.951 288.167 108.337C290.961 106.79 291.518 106.687 292.393 107.562ZM310.089 112.925C310.089 113.475 310.539 113.925 311.089 113.925C311.639 113.925 312.089 113.475 312.089 112.925C312.089 112.375 311.639 111.925 311.089 111.925C310.539 111.925 310.089 112.375 310.089 112.925ZM314.089 112.925C314.089 113.475 314.539 113.925 315.089 113.925C315.639 113.925 316.089 113.475 316.089 112.925C316.089 112.375 315.639 111.925 315.089 111.925C314.539 111.925 314.089 112.375 314.089 112.925ZM318.15 113.864C316.082 115.932 315.311 119.925 316.981 119.925C317.471 119.925 318.155 118.8 318.5 117.425C318.845 116.05 319.829 114.925 320.688 114.925C321.893 114.925 322.101 115.592 321.603 117.86C321.117 120.074 321.466 121.302 323.024 122.86C325.868 125.704 325.678 127.925 322.589 127.925C321.214 127.925 320.089 128.375 320.089 128.925C320.089 129.475 321.43 129.925 323.07 129.925C326.994 129.925 328.156 126.173 325.471 122.168C324.46 120.659 323.623 117.86 323.611 115.948C323.584 111.727 321.198 110.816 318.15 113.864ZM32.6964 116.507C32.3624 117.377 32.0894 118.502 32.0894 119.007C32.0894 120.195 29.3784 120.202 28.6454 119.015C27.6434 117.395 29.2493 114.925 31.3033 114.925C32.7163 114.925 33.1254 115.389 32.6964 116.507ZM306.756 116.592C305.599 117.748 306.031 121.467 307.557 123.484C308.365 124.551 309.04 126.839 309.057 128.568C309.089 131.757 310.45 132.925 314.136 132.925C316.082 132.925 318.503 129.672 317.387 128.556C317.04 128.209 317.281 127.925 317.922 127.925C320.247 127.925 319.009 123.998 315.425 120.007C312.039 116.235 308.505 114.843 306.756 116.592ZM313.866 120.869C317.353 124.054 317.83 126.363 315.605 129.3C313.74 131.763 311.602 130.849 311.322 127.47C311.199 125.989 310.422 123.811 309.594 122.629C306.022 117.529 308.908 116.34 313.866 120.869ZM28.5074 121.532C29.3774 121.866 30.0894 122.814 30.0894 123.639C30.0894 124.596 29.5164 124.919 28.5074 124.532C27.6374 124.198 26.7374 123.925 26.5074 123.925C26.2774 123.925 26.0894 123.25 26.0894 122.425C26.0894 120.742 26.2724 120.674 28.5074 121.532ZM36.0894 122.818C36.0894 123.309 35.4144 123.97 34.5894 124.287C33.6754 124.637 33.0894 124.288 33.0894 123.394C33.0894 122.586 33.7644 121.925 34.5894 121.925C35.4144 121.925 36.0894 122.327 36.0894 122.818ZM57.6084 125.986C58.3314 128.263 54.3184 135.143 52.5894 134.592C52.0394 134.416 51.1603 132.568 50.6353 130.485C49.8203 127.25 49.9584 126.494 51.5764 125.311C54.3014 123.318 56.8524 123.604 57.6084 125.986ZM292.589 155.925C292.249 156.475 291.128 156.925 290.097 156.925C288.141 156.925 286.506 160.172 287.583 161.916C287.926 162.471 287.73 162.925 287.148 162.925C284.914 162.925 286.217 164.432 288.568 164.568C290.748 164.694 290.916 164.471 289.974 162.71C289.272 161.398 289.242 160.372 289.888 159.726C290.535 159.079 291.271 159.948 292.032 162.253C292.67 164.185 293.843 166.306 294.64 166.967C296.611 168.603 296.52 166.897 294.399 162.449C292.071 157.566 293.744 155.831 297.916 158.802C299.556 159.97 302.277 160.925 303.962 160.925C307.973 160.925 307.264 162.888 301.802 166.904L297.721 169.906L294.405 167.949C291.87 166.453 291.089 166.317 291.089 167.37C291.089 168.856 298.645 172.925 301.405 172.925C302.331 172.925 303.089 172.475 303.089 171.925C303.089 171.375 302.564 170.925 301.923 170.925C301.281 170.925 302.67 169.158 305.01 166.998C310.121 162.279 310.2 159.581 305.24 159.105C303.406 158.929 300.485 157.918 298.748 156.859C295.215 154.704 293.504 154.445 292.589 155.925ZM286.089 166.925C286.089 167.475 286.539 167.925 287.089 167.925C287.639 167.925 288.089 167.475 288.089 166.925C288.089 166.375 287.639 165.925 287.089 165.925C286.539 165.925 286.089 166.375 286.089 166.925ZM242.756 167.592C241.709 168.639 241.977 172.925 243.089 172.925C243.639 172.925 244.089 171.575 244.089 169.925C244.089 166.818 243.885 166.462 242.756 167.592ZM94.4933 172.925C94.8193 174.85 95.3814 186.565 95.7414 198.957C96.4414 223.036 95.5643 235.579 90.5313 273.425C89.7273 279.475 88.8213 286.338 88.5183 288.675L87.9664 292.925H82.3704H76.7744L77.6414 266.175C78.1184 251.463 78.4623 235.15 78.4073 229.925C78.2433 214.54 75.8324 179.925 74.9254 179.925C74.4654 179.925 74.0834 181.613 74.0764 183.675C74.0694 185.738 73.1574 191.7 72.0514 196.925C70.9444 202.15 69.5973 213.4 69.0573 221.925C68.5183 230.45 67.6474 241.475 67.1244 246.425C64.6314 269.982 63.8633 281.489 64.4243 286.856C65.1093 293.406 64.6033 293.883 56.9323 293.911L53.2764 293.925L52.6404 284.675C51.2124 263.884 50.2713 178.572 51.4073 172.843L52.1174 169.261L73.0084 169.343L93.8994 169.425L94.4933 172.925ZM235.104 173.675C235.113 174.088 235.538 175.087 236.05 175.896C237.202 177.718 238.554 176.578 237.744 174.468C237.146 172.91 235.076 172.288 235.104 173.675ZM248.756 174.592C247.702 175.645 247.98 180.925 249.089 180.925C249.639 180.925 250.089 179.35 250.089 177.425C250.089 173.828 249.907 173.441 248.756 174.592ZM228.686 178.769C228.34 179.329 228.544 180.088 229.139 180.456C230.677 181.406 231.669 180.105 230.385 178.821C229.667 178.103 229.108 178.086 228.686 178.769ZM219.589 179.925C219.19 180.571 219.313 181.549 219.863 182.099C220.53 182.766 221.105 182.708 221.589 181.925C221.988 181.279 221.865 180.301 221.315 179.751C220.648 179.084 220.073 179.142 219.589 179.925ZM242.879 180.468C242.064 181.283 243.147 184.925 244.206 184.925C244.691 184.925 245.082 184.363 245.074 183.675C245.052 181.937 243.573 179.774 242.879 180.468ZM233.632 182.856C233.315 183.368 233.514 184.069 234.073 184.415C234.632 184.76 235.089 184.341 235.089 183.484C235.089 181.727 234.489 181.469 233.632 182.856ZM252.632 182.856C252.315 183.368 252.514 184.069 253.073 184.415C253.632 184.76 254.089 184.341 254.089 183.484C254.089 181.727 253.489 181.469 252.632 182.856ZM262.214 184.761C260.811 187.306 261.469 188.945 263.199 187.215C263.792 186.622 264.102 185.302 263.889 184.281C263.541 182.615 263.369 182.665 262.214 184.761ZM224.31 185.847C224.463 187.179 225.152 188.454 225.839 188.68C227.54 189.24 227.412 187.717 225.56 185.366C224.079 183.486 224.039 183.502 224.31 185.847ZM256.62 187.218C256.192 188.204 256.123 189.292 256.465 189.635C257.481 190.65 258.3 189.224 257.832 187.253C257.418 185.506 257.364 185.505 256.62 187.218ZM212.872 187.476C212.145 188.202 213.179 192.863 214.208 193.499C214.693 193.798 215.089 192.693 215.089 191.043C215.089 188.205 213.959 186.388 212.872 187.476ZM231.672 187.791C231.241 188.488 231.159 189.328 231.489 189.658C232.384 190.553 233.36 189.237 232.876 187.787C232.538 186.771 232.302 186.771 231.672 187.791ZM250.214 189.761C248.811 192.306 249.469 193.945 251.199 192.215C251.792 191.622 252.102 190.302 251.889 189.281C251.541 187.615 251.369 187.665 250.214 189.761ZM244.672 190.791C244.241 191.488 244.159 192.328 244.489 192.658C245.384 193.553 246.36 192.237 245.876 190.787C245.538 189.771 245.302 189.771 244.672 190.791ZM220.089 193.866C220.089 194.998 220.539 195.925 221.089 195.925C221.639 195.925 222.089 195.277 222.089 194.484C222.089 193.691 221.639 192.765 221.089 192.425C220.539 192.085 220.089 192.734 220.089 193.866ZM225.81 192.568C225.002 193.876 226.057 197.925 227.206 197.925C228.25 197.925 228.244 196.18 227.191 193.491C226.772 192.42 226.156 192.008 225.81 192.568ZM234.425 193.492C234.094 194.354 234.333 195.569 234.956 196.192C235.8 197.036 236.089 196.636 236.089 194.625C236.089 191.616 235.34 191.107 234.425 193.492ZM250.289 196.125C248.836 197.578 248.696 200.925 250.089 200.925C250.639 200.925 251.089 200.025 251.089 198.925C251.089 197.825 251.539 196.925 252.089 196.925C252.639 196.925 253.089 196.475 253.089 195.925C253.089 194.569 251.749 194.665 250.289 196.125ZM266.589 195.925C266.249 196.475 266.673 196.925 267.53 196.925C268.387 196.925 269.089 196.475 269.089 195.925C269.089 195.375 268.666 194.925 268.148 194.925C267.63 194.925 266.929 195.375 266.589 195.925ZM241.797 198.55C241.017 199.33 242.092 201.925 243.196 201.925C244.339 201.925 244.364 199.213 243.228 198.511C242.755 198.219 242.111 198.236 241.797 198.55ZM211.089 200.307C211.089 201.132 211.539 202.085 212.089 202.425C212.639 202.765 213.089 202.368 213.089 201.543C213.089 200.718 212.639 199.765 212.089 199.425C211.539 199.085 211.089 199.482 211.089 200.307ZM261.089 200.366C261.089 201.223 261.539 201.925 262.089 201.925C262.639 201.925 263.089 201.502 263.089 200.984C263.089 200.466 262.639 199.765 262.089 199.425C261.539 199.085 261.089 199.509 261.089 200.366ZM229.758 201.651C228.946 202.965 229.942 205.925 231.196 205.925C232.237 205.925 232.236 205.159 231.191 202.491C230.719 201.286 230.179 200.97 229.758 201.651ZM265.214 202.761C263.811 205.306 264.469 206.945 266.199 205.215C266.792 204.622 267.102 203.302 266.889 202.281C266.541 200.615 266.369 200.665 265.214 202.761ZM221.837 202.51C221.053 203.294 222.178 206.925 223.206 206.925C224.342 206.925 224.361 203.211 223.228 202.511C222.755 202.219 222.129 202.218 221.837 202.51ZM258.632 203.856C258.315 204.368 258.514 205.069 259.073 205.415C259.632 205.76 260.089 205.341 260.089 204.484C260.089 202.727 259.489 202.469 258.632 203.856ZM297.758 208.069C297.132 213.355 297.464 214.925 299.207 214.925C299.757 214.925 299.922 214.464 299.574 213.901C299.226 213.337 299.263 211.425 299.656 209.651C300.283 206.827 300.47 206.674 301.16 208.425C301.594 209.525 301.98 211.662 302.019 213.175C302.115 216.944 304.089 216.675 304.089 212.893C304.089 208.833 301.535 202.925 299.779 202.925C298.826 202.925 298.17 204.594 297.758 208.069ZM247.089 205.925C247.089 206.475 247.539 206.925 248.089 206.925C248.639 206.925 249.089 206.475 249.089 205.925C249.089 205.375 248.639 204.925 248.089 204.925C247.539 204.925 247.089 205.375 247.089 205.925ZM210.632 206.856C210.315 207.368 210.514 208.069 211.073 208.415C211.632 208.76 212.089 208.341 212.089 207.484C212.089 205.727 211.489 205.469 210.632 206.856ZM227.973 209.374C226.468 210.879 232.692 245.863 236.478 257.175L238.736 263.925H235.541C232.622 263.925 232.292 263.6 231.74 260.175C231.407 258.113 229.14 251.467 226.701 245.408C222.746 235.582 221.598 231.789 220.718 225.648C220.286 222.629 218.572 224.243 218.865 227.393C219.259 231.626 221.329 238.144 225.389 247.925C227.329 252.6 229.243 258.183 229.643 260.332L230.37 264.238L223.23 263.575C215.626 262.868 213.285 264.221 220.199 265.327C227.352 266.47 253.96 266.015 271.589 264.447C280.939 263.615 293.834 262.933 300.245 262.93L311.901 262.925L312.583 267.879C312.957 270.604 312.995 273.268 312.666 273.801C312.337 274.333 308.447 274.792 304.022 274.821C299.596 274.85 290.489 275.6 283.782 276.489C270.337 278.269 261.703 278.561 237.089 278.066C228.014 277.883 219.413 278.035 217.975 278.404C214.646 279.257 214.121 277.541 214.103 265.743C214.089 257.324 214.176 257 216.952 255.023C219.943 252.893 221.089 253.136 221.089 255.901C221.089 256.804 221.792 258.416 222.651 259.484C224.113 261.3 224.17 261.168 223.542 257.425C222.95 253.892 222.397 250.971 222.166 250.155C221.982 249.507 214.33 253.93 213.129 255.377C210.731 258.266 211.75 279.413 214.367 281.078C214.932 281.438 215.553 283.238 215.746 285.078C216.214 289.515 216.885 291.169 217.952 290.51C218.434 290.212 218.503 288.19 218.106 286.017C217.709 283.844 217.724 281.516 218.139 280.843C218.717 279.909 224.3 279.755 241.742 280.189C260.601 280.659 267.382 280.425 280.589 278.848C289.389 277.797 299.176 276.935 302.339 276.931L308.089 276.925V281.925C308.089 284.675 308.539 286.925 309.089 286.925C309.639 286.925 310.089 284.706 310.089 281.995C310.089 277.643 310.353 277.027 312.339 276.745C314.433 276.447 314.583 275.948 314.503 269.557C314.441 264.509 313.805 261.461 312.106 258.057C310.834 255.509 309.477 252.75 309.09 251.925C308.181 249.988 301.095 249.271 301.075 251.115C301.068 251.835 300.79 253.438 300.459 254.675C300.102 256.008 300.303 256.925 300.953 256.925C301.557 256.925 302.333 255.8 302.678 254.425C304.037 249.012 309.393 252.884 308.319 258.503C307.905 260.67 307.453 260.768 297.238 260.893C291.381 260.965 282.647 261.351 277.83 261.752C273.012 262.152 269.19 262.242 269.336 261.952C269.481 261.662 270.785 259.175 272.232 256.425C278.291 244.914 278.41 238.894 272.621 236.8C268.67 235.372 267.644 233.625 269.128 230.853C271.101 227.165 279.642 229.294 280.76 233.752C281.197 235.491 280.858 236.621 279.632 237.517C276.969 239.464 278.145 241.275 280.844 239.384C283.076 237.821 283.859 233.578 282.324 231.367C278.949 226.507 270.166 225.352 267.502 229.418C265.123 233.048 266.357 236.592 270.621 238.374C274.938 240.178 275.525 241.594 274.117 246.82C272.786 251.764 271.569 252.067 270.684 247.675C270.204 245.291 269.797 244.798 269.157 245.826C268.63 246.673 268.805 248.702 269.599 250.955C270.774 254.283 270.708 255.023 268.98 257.864C267.916 259.614 267.267 261.404 267.538 261.843C268.125 262.793 257.401 263.908 247.583 263.918L240.576 263.925L237.787 254.175C234.432 242.445 231.533 227.987 230.603 218.348C229.95 211.577 229.003 208.344 227.973 209.374ZM249.686 209.769C249.34 210.329 249.544 211.088 250.139 211.456C251.677 212.406 252.669 211.105 251.385 209.821C250.667 209.103 250.108 209.086 249.686 209.769ZM219.089 211.807C219.089 212.907 219.539 214.085 220.089 214.425C220.639 214.765 221.089 214.143 221.089 213.043C221.089 211.943 220.639 210.765 220.089 210.425C219.539 210.085 219.089 210.707 219.089 211.807ZM241.089 211.456C241.089 212.264 241.764 212.925 242.589 212.925C243.414 212.925 244.089 212.523 244.089 212.032C244.089 211.541 243.414 210.88 242.589 210.563C241.675 210.213 241.089 210.562 241.089 211.456ZM256.62 211.218C256.192 212.204 256.123 213.292 256.465 213.635C257.481 214.65 258.3 213.224 257.832 211.253C257.418 209.506 257.364 209.505 256.62 211.218ZM211.121 212.553C211.103 213.723 211.764 215.24 212.589 215.925C214.636 217.624 214.659 215.061 212.621 212.366C211.181 210.463 211.152 210.467 211.121 212.553ZM267.548 211.992C267.185 212.578 267.129 213.298 267.422 213.592C268.139 214.308 270.089 213.046 270.089 211.866C270.089 210.588 268.363 210.673 267.548 211.992ZM237.62 213.218C237.192 214.204 237.123 215.292 237.465 215.635C238.481 216.65 239.3 215.224 238.832 213.253C238.418 211.506 238.364 211.505 237.62 213.218ZM275.269 213.567C274.764 214.47 274.492 215.933 274.665 216.817C274.837 217.701 275.26 220.171 275.604 222.305C276.042 225.026 276.544 225.87 277.283 225.131C278.022 224.392 278.005 223.124 277.226 220.889C276.529 218.888 276.456 217.091 277.032 216.063C277.808 214.676 278.113 214.857 279.019 217.24C279.607 218.788 280.089 221.376 280.089 222.99C280.089 224.604 280.539 225.925 281.089 225.925C282.68 225.925 282.248 219.327 280.404 215.459C278.583 211.642 276.729 210.958 275.269 213.567ZM242.637 215.175C242.218 216.137 242.218 217.713 242.637 218.675C243.362 220.342 243.418 220.342 243.817 218.675C244.047 217.713 244.047 216.137 243.817 215.175C243.418 213.508 243.362 213.508 242.637 215.175ZM261.672 214.791C261.241 215.488 261.159 216.328 261.489 216.658C262.384 217.553 263.36 216.237 262.876 214.787C262.538 213.771 262.302 213.771 261.672 214.791ZM289.589 215.925C288.878 217.075 289.372 217.194 293.839 216.95C296.262 216.817 297.854 217.536 300.089 219.771C304.725 224.407 303.802 229.784 298.025 231.798C293.957 233.216 288.567 231.068 286.875 227.355C285.771 224.931 285.911 224.479 288.373 222.516C291.602 219.941 291.847 218.914 289.058 219.643C286.612 220.283 284.089 223.652 284.089 226.279C284.089 227.33 285.623 229.636 287.498 231.404L290.907 234.619L284.423 242.522C275.669 253.193 271.866 258.756 272.344 260.19C272.563 260.848 274.201 259.37 275.984 256.905C277.767 254.441 282.432 248.519 286.352 243.745C292.372 236.412 294.126 234.901 297.644 234.015C299.935 233.439 302.351 232.315 303.012 231.518C304.045 230.274 304.717 230.411 307.791 232.497C309.758 233.833 311.747 234.925 312.209 234.925C312.672 234.925 313.335 236.057 313.682 237.441C314.299 239.897 318.928 244.419 319.866 243.481C320.126 243.222 319.157 241.606 317.713 239.891C316.27 238.175 315.089 236.392 315.089 235.928C315.089 234.493 320.858 233.731 323.007 234.881C329.147 238.167 327.74 246.925 321.072 246.925C318.284 246.925 312.106 242.967 312.096 241.175C312.092 240.488 311.607 239.925 311.018 239.925C310.428 239.925 309.211 239.19 308.312 238.291C307.108 237.087 306.569 236.986 306.262 237.907C306.033 238.594 306.463 239.563 307.217 240.061C308.322 240.79 308.168 241.302 306.422 242.695C305.23 243.647 300.618 247.306 296.172 250.827C288.83 256.642 286.761 258.927 288.839 258.924C289.252 258.923 292.872 256.239 296.885 252.959C300.898 249.679 305.472 246.076 307.05 244.953L309.918 242.91L312.969 245.478C320.568 251.871 328.977 249.571 329.057 241.076C329.081 238.564 328.277 236.969 325.839 234.692C323.214 232.239 322.581 230.865 322.547 227.54C322.459 218.847 314.786 213.887 307.219 217.631C303.562 219.44 303.487 219.436 300.158 217.192C296.704 214.865 290.69 214.144 289.589 215.925ZM208.797 216.55C208.017 217.33 209.092 219.925 210.196 219.925C211.339 219.925 211.364 217.213 210.228 216.511C209.755 216.219 209.111 216.236 208.797 216.55ZM252.774 219.854C251.965 221.477 251.555 223.058 251.864 223.367C252.658 224.16 256.089 220.881 256.089 219.329C256.089 216.7 254.198 217 252.774 219.854ZM217.642 218.84C217.32 219.361 217.483 220.05 218.004 220.372C218.525 220.694 219.214 220.531 219.536 220.01C219.858 219.489 219.695 218.8 219.174 218.478C218.653 218.156 217.964 218.319 217.642 218.84ZM315.596 219.495C319.186 221.199 321.632 225.638 320.663 228.691C318.352 235.973 305.089 232.237 305.089 224.304C305.089 221.339 305.567 220.621 308.339 219.416C312.389 217.656 311.703 217.648 315.596 219.495ZM264.672 219.791C264.241 220.488 264.159 221.328 264.489 221.658C265.384 222.553 266.36 221.237 265.876 219.787C265.538 218.771 265.302 218.771 264.672 219.791ZM238.633 221.24C237.092 224.702 241.729 258.965 244.053 261.289C245.5 262.736 245.417 261.647 243.014 247.725C241.873 241.113 240.602 232.041 240.19 227.564C239.687 222.101 239.175 220.022 238.633 221.24ZM247.955 222.675C246.678 225.914 247.662 258.898 249.078 260.314C249.605 260.841 249.894 252.71 249.781 240.57C249.675 229.218 249.465 219.929 249.314 219.928C249.163 219.926 248.552 221.162 247.955 222.675ZM293.089 220.439C293.089 220.721 293.64 221.835 294.314 222.914C295.281 224.461 295.281 225.133 294.314 226.1C293.347 227.067 293.089 226.966 293.089 225.625C293.089 224.69 292.639 223.925 292.089 223.925C291.539 223.925 291.089 225.05 291.089 226.425C291.089 229.162 293.736 229.878 295.889 227.725C298.137 225.477 296.714 219.925 293.889 219.925C293.449 219.925 293.089 220.156 293.089 220.439ZM309.315 224.104C309.874 225.78 312.856 227.491 313.718 226.629C314.117 226.231 313.576 225.248 312.516 224.446C310.164 222.667 308.787 222.52 309.315 224.104ZM327.832 224.515C326.616 225.732 326.988 226.901 328.417 226.353C330.203 225.667 335.351 227.691 334.661 228.808C334.36 229.295 332.083 229.999 329.601 230.371C327.12 230.743 325.089 231.498 325.089 232.048C325.089 233.268 334.016 232.129 335.839 230.676C337.468 229.378 337.429 227.452 335.744 226.053C333.971 224.583 328.775 223.572 327.832 224.515ZM210.121 226.553C210.103 227.723 210.764 229.24 211.589 229.925C213.636 231.624 213.659 229.061 211.621 226.366C210.181 224.463 210.152 224.467 210.121 226.553ZM223.089 225.803C223.089 227.081 226.029 229.318 226.756 228.592C227.482 227.865 225.245 224.925 223.967 224.925C223.484 224.925 223.089 225.32 223.089 225.803ZM256.595 226.675C256.206 227.637 255.414 235.759 254.837 244.723C254.051 256.909 254.076 261.312 254.937 262.173C255.806 263.042 256.089 262.588 256.089 260.325C256.089 258.675 256.468 256.898 256.931 256.375C257.901 255.282 263.089 240.657 263.089 239.018C263.089 236.123 261.273 238.499 259.721 243.425C258.767 246.45 257.672 248.925 257.288 248.925C256.472 248.925 257.61 230.493 258.63 227.175C259.447 224.518 257.646 224.076 256.595 226.675ZM261.187 232.074C259.869 235.854 259.865 235.925 260.928 235.925C261.8 235.925 264.089 231.546 264.089 229.878C264.089 227.72 262.209 229.143 261.187 232.074ZM272.089 232.642C272.089 234.128 274.388 235.925 276.289 235.925C278.592 235.925 278.625 234.347 276.339 233.541C275.377 233.201 274.027 232.662 273.339 232.341C272.652 232.021 272.089 232.156 272.089 232.642ZM301.284 236.941C299.466 239.13 292.743 245.281 286.342 250.609C279.942 255.938 275.231 260.472 275.874 260.687C278.361 261.516 306.089 236.828 306.089 233.784C306.089 232.026 304.496 233.073 301.284 236.941ZM263.089 251.234C263.089 253.633 265.544 257.803 266.433 256.914C267.137 256.211 264.776 248.925 263.844 248.925C263.429 248.925 263.089 249.964 263.089 251.234ZM318.866 252.869C320.639 254.488 322.089 256.372 322.089 257.056C322.089 257.74 320.827 257.09 319.284 255.612C316.541 252.984 312.089 251.94 312.089 253.925C312.089 254.475 312.812 254.925 313.695 254.925C314.578 254.925 316.637 256.05 318.271 257.425C322.109 260.654 324.089 260.638 324.089 257.377C324.089 254.591 319.789 249.925 317.22 249.925C316.157 249.925 316.694 250.884 318.866 252.869ZM255.089 271.925C255.089 272.475 257.591 272.925 260.648 272.925C264.099 272.925 265.973 273.304 265.589 273.925C265.249 274.475 262.208 274.925 258.83 274.925C254.279 274.925 252.98 275.216 253.815 276.051C255.329 277.565 266.432 276.715 268.595 274.92C270.157 273.624 270.15 273.442 268.488 272.228C266.408 270.707 255.089 270.451 255.089 271.925ZM133.427 285.175C133.772 288.613 134.33 292.402 134.668 293.597C135.149 295.3 134.076 297.013 129.701 301.53C123.72 307.705 121.88 308.158 124.675 302.768C125.831 300.54 126.566 296.19 126.88 289.727C127.312 280.833 127.527 279.995 129.47 279.614C130.636 279.385 131.861 279.136 132.194 279.061C132.527 278.986 133.082 281.738 133.427 285.175ZM124.971 287.175C124.798 297.737 124.114 299.74 119.333 303.684L115.076 307.194L117.604 301.674C118.994 298.638 120.663 292.502 121.314 288.039C122.096 282.668 122.934 279.925 123.793 279.925C124.746 279.925 125.058 281.842 124.971 287.175ZM262.089 289.982C222.79 290.686 214.258 291.32 213.383 293.602C212.834 295.031 214.768 309.937 215.611 310.78C216.845 312.014 217.002 309.669 216.141 302.847C215.626 298.765 215.538 295.089 215.944 294.678C217.507 293.098 239.001 291.985 273.748 291.686L309.907 291.374L310.248 300.067C310.558 307.974 311.291 311.056 312.559 309.788C312.818 309.53 312.75 304.73 312.408 299.122L311.787 288.925L305.688 289.118C302.334 289.224 282.714 289.613 262.089 289.982ZM65.1143 297.49C67.0163 302.492 66.3704 304.677 62.6244 305.913C60.7194 306.542 58.3493 308.169 57.3593 309.529C55.7993 311.671 54.5554 312.074 48.0734 312.538L40.5894 313.075L45.0894 308.984C48.6714 305.727 50.1504 304.993 52.3394 305.384C55.6624 305.977 55.9414 304.676 52.8394 303.054C50.8334 302.005 51.0024 301.929 54.4054 302.349C57.0864 302.68 58.1044 302.465 57.8274 301.623C57.6104 300.964 56.4554 300.281 55.2614 300.105C50.8954 299.463 53.3504 296.203 58.6024 295.668C60.7954 295.444 62.9383 295.186 63.3643 295.093C63.7903 295.001 64.5773 296.079 65.1143 297.49ZM88.8884 302.918L89.1863 310.895L85.8884 312.906C81.7224 315.446 81.5073 315.434 78.5443 312.47C76.5953 310.522 76.0894 308.99 76.0894 305.036C76.0894 302.296 76.5284 298.901 77.0644 297.49C77.9424 295.182 78.5694 294.926 83.3144 294.933L88.5894 294.941L88.8884 302.918ZM183.089 302.425C183.089 306.092 183.525 308.925 184.089 308.925C184.653 308.925 185.089 306.092 185.089 302.425C185.089 298.758 184.653 295.925 184.089 295.925C183.525 295.925 183.089 298.758 183.089 302.425ZM97.2354 299.503C95.9324 302.364 95.7024 306.925 96.8624 306.925C97.8744 306.925 99.9494 297.957 99.0634 297.409C98.6884 297.177 97.8664 298.12 97.2354 299.503ZM138.071 298.675C138.061 299.637 134.782 303.407 130.784 307.051C125.102 312.23 122.595 313.833 119.302 314.389C116.615 314.843 115.089 314.727 115.089 314.07C115.089 312.44 119.291 309.925 122.015 309.925C123.767 309.925 126.271 308.047 130.542 303.528C137.051 296.642 138.099 295.967 138.071 298.675ZM80.5894 298.925C80.2274 299.51 81.2654 299.925 83.0894 299.925C84.9134 299.925 85.9514 299.51 85.5894 298.925C85.2494 298.375 84.1244 297.925 83.0894 297.925C82.0544 297.925 80.9294 298.375 80.5894 298.925ZM102.886 298.547C101.995 300.18 102.581 308.425 103.589 308.425C104.918 308.425 105.456 301.403 104.287 299.314C103.78 298.409 103.15 298.063 102.886 298.547ZM142.25 300.472C140.874 303.492 140.707 310.571 141.993 311.365C142.489 311.673 143.107 309.787 143.364 307.174C143.621 304.562 144.167 301.412 144.577 300.175C145.607 297.066 143.69 297.311 142.25 300.472ZM277.172 302.974C275.859 309.098 275.835 309.925 276.978 309.925C277.466 309.925 278.172 308.238 278.546 306.175C278.92 304.113 279.469 301.412 279.766 300.175C280.063 298.938 279.844 297.925 279.28 297.925C278.716 297.925 277.767 300.197 277.172 302.974ZM320.446 305.022C320.341 310.249 320.597 311.817 321.422 310.992C322.813 309.601 322.956 298.742 321.589 298.275C320.993 298.071 320.531 300.794 320.446 305.022ZM153.089 304.925C153.089 308.258 153.533 310.925 154.089 310.925C154.645 310.925 155.089 308.258 155.089 304.925C155.089 301.592 154.645 298.925 154.089 298.925C153.533 298.925 153.089 301.592 153.089 304.925ZM162.139 300.831C160.803 303.328 160.765 310.925 162.089 310.925C162.639 310.925 163.089 309.32 163.089 307.359C163.089 305.398 163.54 302.95 164.092 301.92C164.721 300.743 164.74 299.827 164.142 299.458C163.618 299.134 162.717 299.752 162.139 300.831ZM192.089 305.425C192.089 309.092 192.525 311.925 193.089 311.925C193.653 311.925 194.089 309.092 194.089 305.425C194.089 301.758 193.653 298.925 193.089 298.925C192.525 298.925 192.089 301.758 192.089 305.425ZM206.089 301.36C206.089 305.108 207.771 308.685 210.127 309.945C213.057 311.513 213.98 310.237 211.282 308.347C209.945 307.411 208.85 305.283 208.464 302.87C207.773 298.545 206.089 297.474 206.089 301.36ZM285.089 301.36C285.089 305.161 286.875 308.925 288.679 308.925C290.192 308.925 290.194 308.734 288.704 306.46C287.816 305.105 287.089 302.855 287.089 301.46C287.089 300.066 286.639 298.925 286.089 298.925C285.539 298.925 285.089 300.021 285.089 301.36ZM327.087 301.43C325.799 304.818 325.8 309.925 327.089 309.925C327.639 309.925 328.089 308.545 328.089 306.859C328.089 305.173 328.54 302.95 329.092 301.92C329.762 300.667 329.762 299.841 329.09 299.426C328.537 299.084 327.636 299.986 327.087 301.43ZM380.089 300.258C380.089 303.43 382.441 312.925 383.227 312.925C384.366 312.925 384.315 311.384 382.951 304.592C382.325 301.475 381.425 298.925 380.951 298.925C380.477 298.925 380.089 299.525 380.089 300.258ZM199.935 304.932C199.544 310.593 199.851 312.19 201.174 311.372C202.359 310.64 202.369 301.216 201.185 300.485C200.689 300.177 200.126 302.179 199.935 304.932ZM314.459 302.175C314.79 303.412 315.068 306.364 315.075 308.734C315.084 311.349 315.482 312.8 316.089 312.425C318.048 311.215 316.934 299.925 314.856 299.925C314.306 299.925 314.127 300.938 314.459 302.175ZM234.104 303.175C234.12 305.538 235.67 308.702 236.416 307.896C236.656 307.637 236.629 305.963 236.357 304.175C235.797 300.498 234.081 299.736 234.104 303.175ZM239.104 303.675C239.12 306.551 240.603 309.744 241.504 308.844C242.32 308.027 240.933 300.925 239.958 300.925C239.48 300.925 239.096 302.162 239.104 303.675ZM267.756 301.592C266.721 302.626 266.97 307.734 268.089 308.425C268.693 308.798 269.089 307.435 269.089 304.984C269.089 300.839 268.925 300.422 267.756 301.592ZM291.089 301.475C291.089 302.867 294.246 307.925 295.115 307.925C296.431 307.925 296.349 307.329 294.563 303.875C293.243 301.323 291.089 299.834 291.089 301.475ZM80.5894 302.925C80.2274 303.51 81.2654 303.925 83.0894 303.925C84.9134 303.925 85.9514 303.51 85.5894 302.925C85.2494 302.375 84.1244 301.925 83.0894 301.925C82.0544 301.925 80.9294 302.375 80.5894 302.925ZM219.791 302.598C219.198 303.558 221.656 309.925 222.62 309.925C223.425 309.925 222.131 303.695 221.097 302.588C220.667 302.127 220.079 302.132 219.791 302.598ZM225.089 305.425C225.089 307.35 225.539 308.925 226.089 308.925C226.639 308.925 227.089 307.35 227.089 305.425C227.089 303.5 226.639 301.925 226.089 301.925C225.539 301.925 225.089 303.5 225.089 305.425ZM245.694 303.513C244.799 305.843 244.96 308.925 245.976 308.925C247.076 308.925 248.028 303.005 247.027 302.387C246.626 302.139 246.026 302.646 245.694 303.513ZM257.806 302.574C257.021 303.844 258.794 310.624 260.126 311.448C261.421 312.248 261.217 309.199 259.692 304.98C259.008 303.086 258.159 302.003 257.806 302.574ZM302.79 305.425C303.708 307.35 304.826 308.925 305.274 308.925C306.311 308.925 306.305 308.843 304.991 305.074C304.387 303.342 303.27 301.925 302.507 301.925C301.38 301.925 301.433 302.578 302.79 305.425ZM332.756 302.592C331.691 303.657 331.986 311.925 333.089 311.925C333.639 311.925 334.089 310.387 334.089 308.507C334.089 306.627 334.362 304.377 334.696 303.507C335.301 301.93 334.021 301.326 332.756 302.592ZM364.623 303.675C365.034 304.637 365.474 306.55 365.601 307.925C365.935 311.551 366.112 311.684 367.151 309.092C368.35 306.101 367.314 301.925 365.374 301.925C364.328 301.925 364.101 302.454 364.623 303.675ZM369.54 303.539C369.964 304.576 370.544 307.338 370.83 309.675C371.437 314.646 373.135 315.432 372.989 310.675C372.845 305.98 371.739 302.642 370.152 302.113C369.143 301.776 368.978 302.161 369.54 303.539ZM389.089 303.991C389.089 305.127 388.611 306.95 388.026 308.042C387.442 309.135 387.126 311.017 387.324 312.227C387.631 314.092 387.943 313.839 389.387 310.553C391.276 306.255 391.629 301.925 390.089 301.925C389.539 301.925 389.089 302.855 389.089 303.991ZM393.719 306.611C393.106 311.084 393.448 312.899 394.673 311.674C395.778 310.569 396.316 303.184 395.336 302.578C394.776 302.231 394.082 303.963 393.719 306.611ZM338.089 306.925C338.089 309.125 338.539 310.925 339.089 310.925C339.639 310.925 340.089 309.125 340.089 306.925C340.089 304.725 339.639 302.925 339.089 302.925C338.539 302.925 338.089 304.725 338.089 306.925ZM401.089 303.487C401.089 305.71 404.498 313.79 405.241 313.331C406.201 312.738 405.754 310.434 403.756 305.675C402.743 303.263 401.089 301.906 401.089 303.487ZM250.585 305.239C250.158 306.26 250.378 308.227 251.089 309.739C252.695 313.156 253.486 311.164 252.269 306.767C251.506 304.009 251.212 303.742 250.585 305.239ZM343.121 305.675C343.158 307.7 345.527 311.154 346.329 310.352C347.051 309.63 344.867 303.925 343.87 303.925C343.44 303.925 343.103 304.713 343.121 305.675ZM351.089 305.369C351.089 307.193 355.705 312.638 356.543 311.803C357.246 311.102 353.002 304.033 351.839 303.967C351.426 303.944 351.089 304.575 351.089 305.369ZM376.089 304.957C376.089 307.127 379.04 312.925 380.145 312.925C380.851 312.925 381.026 312.243 380.594 311.175C380.204 310.213 379.436 308.188 378.889 306.675C377.921 304.002 376.089 302.878 376.089 304.957ZM168.684 307.577C169.576 311.303 170.049 312.068 171.07 311.437C172.235 310.717 170.762 305.649 169.241 305.142C168.35 304.845 168.193 305.529 168.684 307.577ZM357.089 305.496C357.089 305.811 357.724 306.703 358.5 307.479C359.276 308.254 360.114 309.46 360.363 310.157C360.612 310.854 361.177 311.087 361.62 310.673C362.714 309.653 360.081 304.925 358.42 304.925C357.688 304.925 357.089 305.182 357.089 305.496ZM120.089 306.768C120.089 307.231 118.514 308.458 116.589 309.495C114.664 310.532 113.089 311.727 113.089 312.152C113.089 312.577 111.627 312.91 109.839 312.892L106.589 312.858L108.95 310.892C110.248 309.81 112.3 308.925 113.509 308.925C114.718 308.925 116.58 308.264 117.648 307.457C119.953 305.713 120.089 305.675 120.089 306.768Z" fill="#92A99CAA"/>
</svg>
