<svg width="62" height="46" viewBox="0 0 62 46" fill="none" xmlns="http://www.w3.org/2000/svg">
  <path d="M58.4548 0C59.464 0 59.8378 1.3252 58.9773 1.8526L31.5226 18.6797C31.2019 18.8763 30.7981 18.8763 30.4774 18.6797L3.02266 1.8526C2.16216 1.32519 2.53596 0 3.54523 0H58.4548Z" fill="#EAD5D8"/>
  <path d="M62 45C62 45.5523 61.5523 46 61 46H0.999999C0.447714 46 0 45.5523 0 45V8.81042C0 8.02369 0.86651 7.54506 1.53245 7.96396L30.4675 26.1651C30.793 26.3698 31.207 26.3698 31.5325 26.1651L60.4675 7.96396C61.1335 7.54506 62 8.02369 62 8.81042V45Z" fill="#EAD5D8"/>
</svg>